<mxfile host="www.draw.io" modified="2020-05-09T06:50:22.045Z" agent="5.0 (Windows NT 10.0; Win64; x64) AppleWebKit/537.36 (KHTML, like Gecko) Chrome/81.0.4044.138 Safari/537.36" etag="6CIiKOTN3kwqkSkLMgvk" version="12.9.14" type="github">
  <diagram id="879hA1ASLOYgRwbTXVKG" name="Page-1">
    <mxGraphModel dx="1643" dy="849" grid="1" gridSize="10" guides="1" tooltips="1" connect="1" arrows="1" fold="1" page="1" pageScale="1" pageWidth="827" pageHeight="1169" math="0" shadow="0">
      <root>
        <mxCell id="0" />
        <mxCell id="1" parent="0" />
        <mxCell id="HFOiEgos_aeJ5IK0qum7-43" value="" style="edgeStyle=orthogonalEdgeStyle;rounded=0;orthogonalLoop=1;jettySize=auto;html=1;fontSize=20;fontFamily=Times New Roman;" parent="1" source="HFOiEgos_aeJ5IK0qum7-1" target="HFOiEgos_aeJ5IK0qum7-35" edge="1">
          <mxGeometry relative="1" as="geometry" />
        </mxCell>
        <mxCell id="HFOiEgos_aeJ5IK0qum7-44" style="edgeStyle=orthogonalEdgeStyle;rounded=0;orthogonalLoop=1;jettySize=auto;html=1;entryX=0.5;entryY=0;entryDx=0;entryDy=0;fontSize=20;fontFamily=Times New Roman;" parent="1" target="HFOiEgos_aeJ5IK0qum7-2" edge="1">
          <mxGeometry relative="1" as="geometry">
            <mxPoint x="500" y="210" as="sourcePoint" />
          </mxGeometry>
        </mxCell>
        <mxCell id="HFOiEgos_aeJ5IK0qum7-45" style="edgeStyle=orthogonalEdgeStyle;rounded=0;orthogonalLoop=1;jettySize=auto;html=1;fontSize=20;fontFamily=Times New Roman;" parent="1" source="HFOiEgos_aeJ5IK0qum7-1" target="HFOiEgos_aeJ5IK0qum7-40" edge="1">
          <mxGeometry relative="1" as="geometry" />
        </mxCell>
        <mxCell id="BIK9IRMLcHV4LQx9Entj-6" style="edgeStyle=orthogonalEdgeStyle;rounded=0;orthogonalLoop=1;jettySize=auto;html=1;entryX=0.5;entryY=0;entryDx=0;entryDy=0;" edge="1" parent="1" target="BIK9IRMLcHV4LQx9Entj-3">
          <mxGeometry relative="1" as="geometry">
            <mxPoint x="680" y="210" as="sourcePoint" />
          </mxGeometry>
        </mxCell>
        <mxCell id="HFOiEgos_aeJ5IK0qum7-1" value="复杂行为识别系统" style="rounded=0;whiteSpace=wrap;html=1;fontSize=20;fontFamily=Times New Roman;" parent="1" vertex="1">
          <mxGeometry x="430" y="120" width="320" height="60" as="geometry" />
        </mxCell>
        <mxCell id="HFOiEgos_aeJ5IK0qum7-6" value="" style="edgeStyle=orthogonalEdgeStyle;rounded=0;orthogonalLoop=1;jettySize=auto;html=1;entryX=0.5;entryY=0;entryDx=0;entryDy=0;fontSize=20;fontFamily=Times New Roman;" parent="1" source="HFOiEgos_aeJ5IK0qum7-2" target="HFOiEgos_aeJ5IK0qum7-5" edge="1">
          <mxGeometry relative="1" as="geometry" />
        </mxCell>
        <mxCell id="HFOiEgos_aeJ5IK0qum7-22" style="edgeStyle=orthogonalEdgeStyle;rounded=0;orthogonalLoop=1;jettySize=auto;html=1;entryX=0.5;entryY=0;entryDx=0;entryDy=0;fontSize=20;fontFamily=Times New Roman;" parent="1" source="HFOiEgos_aeJ5IK0qum7-2" target="HFOiEgos_aeJ5IK0qum7-10" edge="1">
          <mxGeometry relative="1" as="geometry" />
        </mxCell>
        <mxCell id="HFOiEgos_aeJ5IK0qum7-2" value="注册/登录模块" style="rounded=0;whiteSpace=wrap;html=1;fontSize=20;fontFamily=Times New Roman;" parent="1" vertex="1">
          <mxGeometry x="270" y="240" width="70" height="140" as="geometry" />
        </mxCell>
        <mxCell id="HFOiEgos_aeJ5IK0qum7-5" value="注册模块" style="rounded=0;whiteSpace=wrap;html=1;fontSize=20;fontFamily=Times New Roman;" parent="1" vertex="1">
          <mxGeometry x="230" y="420" width="50" height="140" as="geometry" />
        </mxCell>
        <mxCell id="HFOiEgos_aeJ5IK0qum7-10" value="登录模块" style="rounded=0;whiteSpace=wrap;html=1;fontSize=20;fontFamily=Times New Roman;" parent="1" vertex="1">
          <mxGeometry x="330" y="420" width="50" height="140" as="geometry" />
        </mxCell>
        <mxCell id="HFOiEgos_aeJ5IK0qum7-33" value="" style="edgeStyle=orthogonalEdgeStyle;rounded=0;orthogonalLoop=1;jettySize=auto;html=1;entryX=0.5;entryY=0;entryDx=0;entryDy=0;fontSize=20;fontFamily=Times New Roman;" parent="1" source="HFOiEgos_aeJ5IK0qum7-35" target="HFOiEgos_aeJ5IK0qum7-36" edge="1">
          <mxGeometry relative="1" as="geometry" />
        </mxCell>
        <mxCell id="HFOiEgos_aeJ5IK0qum7-34" style="edgeStyle=orthogonalEdgeStyle;rounded=0;orthogonalLoop=1;jettySize=auto;html=1;entryX=0.5;entryY=0;entryDx=0;entryDy=0;fontSize=20;fontFamily=Times New Roman;" parent="1" source="HFOiEgos_aeJ5IK0qum7-35" target="HFOiEgos_aeJ5IK0qum7-37" edge="1">
          <mxGeometry relative="1" as="geometry" />
        </mxCell>
        <mxCell id="HFOiEgos_aeJ5IK0qum7-35" value="行为识别模块" style="rounded=0;whiteSpace=wrap;html=1;fontSize=20;fontFamily=Times New Roman;" parent="1" vertex="1">
          <mxGeometry x="460" y="240" width="70" height="140" as="geometry" />
        </mxCell>
        <mxCell id="HFOiEgos_aeJ5IK0qum7-36" value="识别模块" style="rounded=0;whiteSpace=wrap;html=1;fontSize=20;fontFamily=Times New Roman;" parent="1" vertex="1">
          <mxGeometry x="420" y="420" width="50" height="140" as="geometry" />
        </mxCell>
        <mxCell id="HFOiEgos_aeJ5IK0qum7-37" value="实时数据查看模块" style="rounded=0;whiteSpace=wrap;html=1;fontSize=20;fontFamily=Times New Roman;" parent="1" vertex="1">
          <mxGeometry x="520" y="420" width="50" height="140" as="geometry" />
        </mxCell>
        <mxCell id="HFOiEgos_aeJ5IK0qum7-38" value="" style="edgeStyle=orthogonalEdgeStyle;rounded=0;orthogonalLoop=1;jettySize=auto;html=1;entryX=0.5;entryY=0;entryDx=0;entryDy=0;fontSize=20;fontFamily=Times New Roman;" parent="1" source="HFOiEgos_aeJ5IK0qum7-40" target="HFOiEgos_aeJ5IK0qum7-41" edge="1">
          <mxGeometry relative="1" as="geometry" />
        </mxCell>
        <mxCell id="HFOiEgos_aeJ5IK0qum7-39" style="edgeStyle=orthogonalEdgeStyle;rounded=0;orthogonalLoop=1;jettySize=auto;html=1;entryX=0.5;entryY=0;entryDx=0;entryDy=0;fontSize=20;fontFamily=Times New Roman;" parent="1" source="HFOiEgos_aeJ5IK0qum7-40" target="HFOiEgos_aeJ5IK0qum7-42" edge="1">
          <mxGeometry relative="1" as="geometry" />
        </mxCell>
        <mxCell id="HFOiEgos_aeJ5IK0qum7-40" value="数据查询模块" style="rounded=0;whiteSpace=wrap;html=1;fontSize=20;fontFamily=Times New Roman;" parent="1" vertex="1">
          <mxGeometry x="650" y="240" width="70" height="140" as="geometry" />
        </mxCell>
        <mxCell id="HFOiEgos_aeJ5IK0qum7-41" value="图表模板" style="rounded=0;whiteSpace=wrap;html=1;fontSize=20;fontFamily=Times New Roman;" parent="1" vertex="1">
          <mxGeometry x="610" y="420" width="50" height="140" as="geometry" />
        </mxCell>
        <mxCell id="HFOiEgos_aeJ5IK0qum7-42" value="数据模块" style="rounded=0;whiteSpace=wrap;html=1;fontSize=20;fontFamily=Times New Roman;" parent="1" vertex="1">
          <mxGeometry x="710" y="420" width="50" height="140" as="geometry" />
        </mxCell>
        <mxCell id="BIK9IRMLcHV4LQx9Entj-1" value="" style="edgeStyle=orthogonalEdgeStyle;rounded=0;orthogonalLoop=1;jettySize=auto;html=1;entryX=0.5;entryY=0;entryDx=0;entryDy=0;fontSize=20;fontFamily=Times New Roman;" edge="1" parent="1" source="BIK9IRMLcHV4LQx9Entj-3" target="BIK9IRMLcHV4LQx9Entj-4">
          <mxGeometry relative="1" as="geometry" />
        </mxCell>
        <mxCell id="BIK9IRMLcHV4LQx9Entj-2" style="edgeStyle=orthogonalEdgeStyle;rounded=0;orthogonalLoop=1;jettySize=auto;html=1;entryX=0.5;entryY=0;entryDx=0;entryDy=0;fontSize=20;fontFamily=Times New Roman;" edge="1" parent="1" source="BIK9IRMLcHV4LQx9Entj-3" target="BIK9IRMLcHV4LQx9Entj-5">
          <mxGeometry relative="1" as="geometry" />
        </mxCell>
        <mxCell id="BIK9IRMLcHV4LQx9Entj-3" value="行为推荐模块" style="rounded=0;whiteSpace=wrap;html=1;fontSize=20;fontFamily=Times New Roman;" vertex="1" parent="1">
          <mxGeometry x="830" y="240" width="70" height="140" as="geometry" />
        </mxCell>
        <mxCell id="BIK9IRMLcHV4LQx9Entj-4" value="当日推荐模板" style="rounded=0;whiteSpace=wrap;html=1;fontSize=20;fontFamily=Times New Roman;" vertex="1" parent="1">
          <mxGeometry x="790" y="420" width="50" height="140" as="geometry" />
        </mxCell>
        <mxCell id="BIK9IRMLcHV4LQx9Entj-5" value="本月推荐模块" style="rounded=0;whiteSpace=wrap;html=1;fontSize=20;fontFamily=Times New Roman;" vertex="1" parent="1">
          <mxGeometry x="890" y="420" width="50" height="140" as="geometry" />
        </mxCell>
      </root>
    </mxGraphModel>
  </diagram>
</mxfile>
